PathFileType	4	(X/Y/Z)	traj.trc
DataRate	CameraRate	NumFrames	NumMarkers	Units	OrigDataRate	OrigDataStartFrame	OrigNumFrames
30.00	30.00	76	1	mm	30.00	1	200
Frame#	Time	wrist		
		X1	Y1	Z1

0	0.0	448.6667215824127	458.0618739128113	-112.3400554060936
1	0.020100502512562814	448.6667215824127	458.0618739128113	-112.3400554060936
2	0.04020100502512563	448.6665755340645	458.0626636142791	-112.34022710150475
3	0.06030150753768844	448.6658511783655	458.06658029506156	-112.34107865889035
4	0.08040201005025126	448.66398485601366	458.0766717306633	-112.34327271988109
5	0.10050251256281408	448.6604303423124	458.09589142552295	-112.34745142986937
6	0.12060301507537688	448.65465866835405	458.1270995798959	-112.35423664822724
7	0.1407035175879397	448.6461579422032	458.17306405673713	-112.36423015852414
8	0.16080402010050251	448.6344331700808	458.2364613485839	-112.37801387874472
9	0.18090452261306533	448.61900607754694	458.31987754443816	-112.39615007150672
10	0.20100502512562815	448.5994149306851	458.42580929664985	-112.4191815542788
11	0.22110552763819097	448.57521435728506	458.55666478779926	-112.44763190959824
12	0.24120603015075376	448.54597516802704	458.71476469757977	-112.48200569528903
13	0.2613065326633166	448.51128417766455	458.90234316968065	-112.5227886546794
14	0.2814070351758794	448.4707440262087	459.12154877866976	-112.57044792681987
15	0.30150753768844224	448.42397300011095	459.3744454968765	-112.62543225670092
16	0.32160804020100503	448.37060485344733	459.66301366127396	-112.68817220547098
17	0.3417085427135678	448.3102886291015	459.9891509403624	-112.75908036065412
18	0.36180904522613067	448.24268847994847	460.35467330105115	-112.83855154636795
19	0.38190954773869346	448.1674834900382	460.76131597554235	-112.9269630335414
20	0.4020100502512563	448.084367495779	461.21073442821256	-113.02467475013262
21	0.4221105527638191	447.9930489071211	461.7045053224965	-113.13202949134671
22	0.44221105527638194	447.8932505287402	462.24412748776894	-113.24935312985366
23	0.4623115577889447	447.78470938122115	462.831022886228	-113.37695482600607
24	0.4824120603015075	447.66717652224116	463.46653757977776	-113.51512723805706
25	0.5025125628140703	447.54041686775355	464.1519426969107	-113.66414673237809
26	0.5226130653266332	447.4042090131712	464.88843539959066	-113.8242735936767
27	0.542713567839196	447.25834505455043	465.6771398501358	-113.99575223521443
28	0.5628140703517588	447.10263040977395	466.5191081781008	-114.17881140902465
29	0.5829145728643216	446.9368836397347	467.4153214471599	-114.37366441613035
30	0.6030150753768845	446.7609362695194	468.36669062198973	-114.58050931676195
31	0.6231155778894473	446.5746326095922	469.3740575351518	-114.79952914057516
32	0.6432160804020101	446.3778295769779	470.43819585397523	-115.03089209686884
33	0.6633165829145728	446.1703965164457	471.5598120474398	-115.27475178480277
34	0.6834170854271356	445.9522150216927	472.73954635305824	-115.53124740361551
35	0.7035175879396985	445.72317875652743	473.97797374375926	-115.80050396284217
36	0.7236180904522613	445.4831932760534	475.27560489477014	-116.08263249253237
37	0.7437185929648241	445.2321758478525	476.6328871504996	-116.37773025346792
38	0.7638190954773869	444.97005527316867	478.05020549142023	-116.68588094738072
39	0.7839195979899498	444.6967717080916	479.52788350095165	-117.00715492717062
40	0.8040201005025126	444.4122764847398	481.06618433234286	-117.3416094071232
41	0.8241206030150754	444.1165319324446	482.66531167555513	-117.68928867312755
42	0.8442211055276382	443.8095111989334	484.32541072414483	-118.05022429289423
43	0.864321608040201	443.4911980715134	486.0465691421457	-118.424435326173
44	0.8844221105527639	443.16158679825486	487.8288180309524	-118.81192853497065
45	0.9045226130653267	442.8206819091749	489.6721328962023	-119.21269859376886
46	0.9246231155778895	442.46849803742106	491.5764346146589	-119.62672829974204
47	0.9447236180904522	442.1050597404546	493.5415904010945	-120.05398878297511
48	0.964824120603015	441.73040132123396	495.56741477517215	-120.49443971668138
49	0.9849246231155779	441.34456664939887	497.65367052832954	-120.94802952742035
50	1.0050251256281406	440.94760898245323	499.80006969066096	-121.4146956053155
51	1.0251256281407035	440.539590786949	502.00627449780023	-121.8943645142722
52	1.0452261306532664	440.1205835596697	504.27189835780337	-122.3869522021955
53	1.065326633165829	439.6906676488137	506.59650681803146	-122.89236421120793
54	1.085427135678392	439.2499320751782	508.9796185320333	-123.41049588786738
55	1.105527638190955	438.79847435334227	511.4207062264281	-123.9412325933849
56	1.1256281407035176	438.33640031285086	513.9191976677881	-124.48444991384248
57	1.1457286432160805	437.86382391939793	516.4744766295217	-125.040013870411
58	1.1658291457286432	437.38086709601015	519.0858838587558	-125.60778112956794
59	1.185929648241206	436.88765954423064	521.7527180432186	-126.1875992133153
60	1.206030150753769	436.384338565302	524.4742367781222	-126.77930670939733
61	1.2261306532663316	435.8710488813504	527.249657533046	-127.38273348151843
62	1.2462311557788945	435.34794245656883	530.0781586188185	-127.99770087956097
63	1.2663316582914572	434.8151783184005	532.9588801544007	-128.6240219498031
64	1.2864321608040201	434.27292237872274	535.8909250337684	-129.26150164513658
65	1.306532663316583	433.72134725503014	538.8733598927953	-129.90993703528463
66	1.3266331658291457	433.1606320916185	541.9052160761354	-130.56911751701972
67	1.3467336683417086	432.59096238076796	544.9854906041057	-131.23882502438144
68	1.3668341708542713	432.01252978392677	548.1131471395697	-131.91883423889433
69	1.3869346733668342	431.42553195289497	551.2871169548188	-132.6089127997856
70	1.407035175879397	430.8301723510073	554.5062998984563	-133.30882151420315
71	1.4271356783919598	430.2266600743177	557.7695653622793	-134.01831456743318
72	1.4472361809045227	429.6152096727818	561.0757532481617	-134.73713973311825
73	1.4673366834170853	428.99604097144135	564.4236749349371	-135.46503858347498
74	1.4874371859296482	428.36937889160714	567.8121142452815	-136.20174669951174
75	1.5075376884422111	427.7354532720428	571.2398284125951	-136.94699388124675
